<svg width="91" height="91" viewBox="0 0 91 91" fill="none" xmlns="http://www.w3.org/2000/svg">
<path d="M64.3612 29.7101C64.3612 16.9451 59.9882 8.13007 59.8022 7.76107C59.7083 7.57511 59.5647 7.41887 59.3872 7.30975C59.2098 7.20064 59.0055 7.14293 58.7972 7.14307H34.2622C33.8372 7.14307 33.4492 7.38207 33.2582 7.76107C33.0722 8.13007 28.6992 16.9461 28.6992 29.7101C28.6992 36.5001 30.8132 42.7821 32.8632 48.8721C34.7242 54.3971 36.4822 59.6161 36.4822 64.7361C36.4822 75.5551 34.6072 84.2901 34.5862 84.3851C34.4482 85.0251 34.6042 85.6851 35.0142 86.1951C35.2153 86.4469 35.4706 86.6501 35.7611 86.7895C36.0517 86.9289 36.37 87.0009 36.6922 87.0001H56.3672C57.0232 87.0001 57.6362 86.7071 58.0472 86.1951C58.2497 85.9446 58.3933 85.6518 58.4672 85.3383C58.5411 85.0248 58.5435 84.6986 58.4742 84.3841C58.3972 84.0271 56.5782 75.5041 56.5782 64.7361C56.5782 59.6201 58.3372 54.3991 60.2042 48.8581C62.2472 42.7821 64.3612 36.5001 64.3612 29.7101V29.7101ZM31.4232 25.3771C31.4252 24.5501 31.6102 23.7451 31.9782 23.0661C32.5982 21.9241 33.6012 21.1601 34.4892 21.1601H34.4962C35.5102 21.1601 36.4162 20.4821 36.7022 19.5141C36.8795 18.9213 37.2426 18.4012 37.7379 18.0305C38.2332 17.6598 38.8345 17.4581 39.4532 17.4551C40.1679 17.4521 40.8577 17.7172 41.3864 18.198C41.9151 18.6788 42.2444 19.3404 42.3092 20.0521C42.3439 20.4155 42.4649 20.7655 42.662 21.0728C42.8591 21.3802 43.1267 21.636 43.4426 21.8192C43.7584 22.0023 44.1134 22.1075 44.4781 22.1259C44.8427 22.1443 45.2065 22.0755 45.5392 21.9251C45.7882 21.8141 46.0932 21.7601 46.4712 21.7601C47.0202 21.7601 48.1422 22.3421 48.7132 23.0671C49.1742 23.6501 49.8972 23.9671 50.6562 23.9361C51.0258 23.9129 51.3843 23.8009 51.7015 23.6098C52.0186 23.4187 52.285 23.154 52.4782 22.8381C53.4862 21.1921 54.9552 20.2481 56.5062 20.2481C58.7862 20.2481 60.7962 22.2961 61.4722 25.1511C59.5412 26.4001 53.7832 29.4001 47.0332 26.0271C40.9152 22.9691 34.4222 24.4061 31.4232 25.3771V25.3771ZM34.9822 9.39307H58.0792C58.7132 10.8301 60.2562 14.6961 61.2382 20.1201C59.9382 18.7961 58.2842 17.9991 56.5072 17.9991C54.1532 17.9991 51.9862 19.3351 50.4792 21.6721C49.5222 20.4601 47.7622 19.5111 46.4712 19.5111C45.7702 19.5111 45.1642 19.6291 44.5492 19.8361C44.4327 18.5668 43.8448 17.3874 42.9014 16.5303C41.9581 15.6732 40.7278 15.2007 39.4532 15.2061C37.2002 15.2061 35.1812 16.7161 34.4942 18.9111H34.4772C33.5752 18.9111 32.6792 19.2391 31.8802 19.8161C32.8652 14.5591 34.3602 10.8051 34.9822 9.39307V9.39307ZM54.3272 64.7361C54.3272 75.4811 56.1072 84.0761 56.2832 84.7501H36.8072C36.8712 84.4421 37.0422 83.5931 37.2552 82.3321H52.2172C52.5156 82.3321 52.8017 82.2135 53.0127 82.0026C53.2237 81.7916 53.3422 81.5054 53.3422 81.2071C53.3422 80.9087 53.2237 80.6226 53.0127 80.4116C52.8017 80.2006 52.5156 80.0821 52.2172 80.0821H37.6052C38.1382 76.4031 38.7302 70.9281 38.7302 64.7361C38.7302 59.2471 36.9152 53.8581 34.9892 48.1401C33.0022 42.2361 30.9472 36.1301 30.9472 29.7091C30.9472 29.1051 30.9602 28.5121 30.9792 27.9251C32.5302 27.3141 39.6312 24.8421 46.0262 28.0381C48.6552 29.3521 51.1532 29.8311 53.3972 29.8311C57.2372 29.8301 60.3252 28.4331 62.0552 27.4271C62.0872 28.1741 62.1102 28.9321 62.1102 29.7091C62.1102 36.1301 60.0552 42.2351 58.0652 48.1521C56.1432 53.8601 54.3272 59.2521 54.3272 64.7361V64.7361Z" fill="white"/>
<path d="M39.4189 35.4061C39.2089 35.6161 39.0889 35.9061 39.0889 36.2061C39.0889 36.5061 39.2089 36.7961 39.4189 36.9961C39.6289 37.2161 39.9189 37.3361 40.2189 37.3361C40.4418 37.3345 40.6593 37.2671 40.8439 37.1422C41.0286 37.0173 41.1722 36.8405 41.2566 36.6342C41.3411 36.4279 41.3626 36.2012 41.3185 35.9827C41.2744 35.7642 41.1667 35.5636 41.0089 35.4061C40.5889 34.9961 39.8489 34.9961 39.4189 35.4061V35.4061Z" fill="white"/>
<path d="M46.9879 40.586C46.7889 40.796 46.6689 41.086 46.6689 41.386C46.6716 41.6822 46.7904 41.9656 46.9999 42.1751C47.2093 42.3846 47.4927 42.5034 47.7889 42.506C48.0869 42.506 48.3728 42.3883 48.5845 42.1786C48.7961 41.9688 48.9163 41.684 48.9189 41.386C48.9189 41.086 48.7989 40.796 48.5889 40.586C48.1689 40.166 47.4189 40.166 46.9879 40.586Z" fill="white"/>
<path d="M54.4188 33.9059C54.2078 34.1186 54.0894 34.4062 54.0894 34.7059C54.0894 35.0056 54.2078 35.2931 54.4188 35.5059C54.6288 35.7159 54.9188 35.8359 55.2188 35.8359C55.4417 35.8343 55.6592 35.7668 55.8439 35.6419C56.0285 35.517 56.1721 35.3403 56.2566 35.134C56.341 34.9277 56.3626 34.701 56.3185 34.4824C56.2744 34.2639 56.1667 34.0633 56.0088 33.9059C55.5888 33.4959 54.8388 33.4849 54.4188 33.9059V33.9059Z" fill="white"/>
<path d="M50.2992 52.1358C50.0892 52.3458 49.9692 52.6358 49.9692 52.9358C49.9718 53.232 50.0907 53.5154 50.3002 53.7249C50.5096 53.9344 50.793 54.0532 51.0892 54.0558C51.3118 54.0561 51.5295 53.9905 51.7148 53.8671C51.9 53.7438 52.0446 53.5683 52.1302 53.3629C52.2158 53.1574 52.2386 52.9312 52.1957 52.7128C52.1528 52.4944 52.0462 52.2936 51.8892 52.1358C51.4692 51.7158 50.7192 51.7158 50.2992 52.1358V52.1358Z" fill="white"/>
<path d="M43.6991 60.3858C43.4891 60.5958 43.3691 60.8858 43.3691 61.1858C43.3718 61.482 43.4906 61.7654 43.7001 61.9749C43.9095 62.1844 44.1929 62.3032 44.4891 62.3058C44.7871 62.3058 45.073 62.1881 45.2847 61.9784C45.4963 61.7686 45.6165 61.4838 45.6191 61.1858C45.6191 60.8858 45.4991 60.5958 45.2891 60.3858C44.8691 59.9658 44.1191 59.9658 43.6991 60.3858Z" fill="white"/>
<path d="M46.988 66.9849C46.7812 67.1987 46.6664 67.4852 46.6685 67.7827C46.6705 68.0802 46.7892 68.365 46.999 68.5759C47.209 68.7859 47.499 68.9059 47.789 68.9059C48.089 68.9059 48.379 68.7859 48.589 68.5759C48.799 68.3659 48.919 68.0759 48.919 67.7749C48.919 67.4849 48.799 67.1959 48.589 66.9849C48.18 66.5649 47.419 66.5649 46.988 66.9849V66.9849Z" fill="white"/>
</svg>
