<svg width="91" height="91" viewBox="0 0 91 91" fill="none" xmlns="http://www.w3.org/2000/svg">
<path d="M74.7278 41.8772H69.0788V38.9602C73.5408 37.4282 76.8728 33.3132 77.1818 28.4022C77.3828 25.2202 76.3278 22.1482 74.2148 19.7512C72.1018 17.3542 69.1858 15.9232 66.0028 15.7232C65.2163 15.6734 64.4267 15.7022 63.6458 15.8092C63.3214 15.0334 62.7857 14.3642 62.0998 13.8777C61.4139 13.3912 60.6053 13.1069 59.7658 13.0572C58.7521 12.9932 57.7464 13.2726 56.9108 13.8502C54.6908 12.263 52.0696 11.3312 49.3458 11.1612C47.9279 11.0731 46.5048 11.1914 45.1208 11.5122C44.7775 9.77214 43.8672 8.19493 42.5323 7.02719C41.1974 5.85945 39.5131 5.16702 37.7428 5.05818C33.7998 4.82018 30.3418 7.39718 29.4308 11.1862C28.2624 10.8127 27.0522 10.5853 25.8278 10.5092C17.5978 10.0002 10.5918 16.2752 10.0828 24.3882C9.89884 27.3142 10.5748 30.2002 12.0368 32.6412C11.5773 33.4979 11.3085 34.4439 11.2488 35.4142C11.1906 36.3049 11.3096 37.1982 11.599 38.0426C11.8884 38.887 12.3425 39.6655 12.9348 40.3332C13.5707 41.0591 14.3547 41.6402 15.2341 42.0375C16.1135 42.4347 17.0679 42.6389 18.0328 42.6362C18.4505 42.6318 18.8669 42.5892 19.2768 42.5092V79.2072C19.2784 80.997 19.9901 82.7131 21.2556 83.9788C22.5211 85.2444 24.237 85.9563 26.0268 85.9582H62.3278C64.1177 85.9563 65.8338 85.2445 67.0995 83.9788C68.3651 82.7132 69.077 80.9971 69.0788 79.2072V73.9412H74.7278C76.4704 73.9393 78.141 73.2464 79.3733 72.0143C80.6055 70.7822 81.2987 69.1117 81.3008 67.3692V48.4492C81.2987 46.7067 80.6055 45.0361 79.3733 43.8041C78.141 42.572 76.4704 41.879 74.7278 41.8772V41.8772ZM17.7458 40.3772C16.5358 40.3012 15.4268 39.7572 14.6228 38.8452C13.8188 37.9332 13.4178 36.7652 13.4928 35.5552C13.5332 34.9065 13.713 34.2741 14.0198 33.7012C14.1942 33.3783 14.2826 33.016 14.2764 32.6491C14.2703 32.2822 14.1699 31.9231 13.9848 31.6062C12.7458 29.4622 12.1689 26.9994 12.3268 24.5282C12.7438 17.9112 18.2588 12.7282 24.8838 12.7282C26.2221 12.7253 27.5522 12.9363 28.8238 13.3532C29.3918 13.5412 30.0228 13.4832 30.5678 13.1792C30.8264 13.0296 31.0514 12.8284 31.2291 12.5883C31.4068 12.3482 31.5333 12.0742 31.6008 11.7832C32.2288 9.01618 34.7358 7.13018 37.5998 7.30218C38.8855 7.38069 40.108 7.88683 41.0729 8.74011C42.0378 9.59338 42.6897 10.7448 42.9248 12.0112C42.9784 12.2998 43.0899 12.5745 43.2527 12.8188C43.4155 13.063 43.6261 13.2717 43.8718 13.4322C44.1171 13.5895 44.3915 13.696 44.6787 13.7453C44.9659 13.7946 45.2601 13.7857 45.5438 13.7192C46.7408 13.4334 47.9737 13.3279 49.2018 13.4062C51.5308 13.5522 53.7608 14.3502 55.6468 15.7142C56.3818 16.2442 57.4218 16.2472 58.1608 15.7212C58.5407 15.4446 58.9989 15.2964 59.4688 15.2982L59.6218 15.3032C60.0509 15.3289 60.4638 15.4763 60.8121 15.7282C61.1605 15.98 61.4299 16.3258 61.5888 16.7252C61.7709 17.1696 62.0959 17.5406 62.5124 17.7797C62.929 18.0187 63.4133 18.1122 63.8888 18.0452C64.5419 17.9528 65.2026 17.9273 65.8608 17.9692C67.1331 18.0462 68.3775 18.3749 69.5217 18.9364C70.666 19.4979 71.6875 20.281 72.5268 21.2402C73.3727 22.1932 74.0211 23.3046 74.4346 24.5099C74.8481 25.7152 75.0185 26.9906 74.9358 28.2622C74.6208 33.2572 70.4578 37.2502 65.4838 37.3532C65.4493 37.3502 65.4145 37.3492 65.3798 37.3502L65.1038 37.3532C62.9352 37.324 60.8399 36.564 59.1568 35.1962C58.3778 34.5672 57.1718 34.5842 56.4108 35.2282C53.967 37.2923 50.819 38.3301 47.6268 38.1242C45.3588 37.9805 43.1744 37.2141 41.3138 35.9092C40.1772 35.1105 39.1833 34.1261 38.3738 32.9972C38.1726 32.7225 37.9101 32.4985 37.6072 32.343C37.3043 32.1875 36.9693 32.1047 36.6288 32.1012C35.9578 32.1012 35.3148 32.4182 34.9118 32.9482C34.2693 33.7839 33.5279 34.5387 32.7038 35.1962C30.2659 37.1191 27.2049 38.076 24.1058 37.8842C23.9167 37.8729 23.728 37.8562 23.5398 37.8342L23.5358 37.8332C22.98 37.7791 22.4242 37.937 21.9798 38.2752L21.9298 38.3162C21.8151 38.4132 21.7102 38.5214 21.6168 38.6392C21.5922 38.6653 21.5688 38.6927 21.5468 38.7212C21.375 38.9306 21.1849 39.1243 20.9788 39.3002L20.9328 39.3392C20.0416 40.0788 18.9016 40.45 17.7458 40.3772V40.3772ZM62.3268 83.7082H26.0258C23.5448 83.7082 21.5258 81.6882 21.5258 79.2072V78.2872H62.1748C62.4732 78.2872 62.7594 78.1687 62.9703 77.9577C63.1813 77.7467 63.2998 77.4606 63.2998 77.1622C63.2998 76.8638 63.1813 76.5777 62.9703 76.3667C62.7594 76.1557 62.4732 76.0372 62.1748 76.0372H21.5258V41.6482C21.6428 41.5772 21.7658 41.5202 21.8798 41.4422C22.0568 41.3202 22.2288 41.1882 22.3928 41.0502L22.4078 41.0372V41.0382C22.7125 40.7819 22.9942 40.4995 23.2498 40.1942C23.2848 40.1592 23.3178 40.1212 23.3508 40.0772C23.5628 40.0992 23.7478 40.1152 23.9518 40.1272L24.0088 40.1322C27.6478 40.3442 31.2588 39.2072 34.1018 36.9592C35.0382 36.2116 35.8842 35.3575 36.6228 34.4142C37.2189 35.2267 37.8968 35.976 38.6458 36.6502C39.0868 37.0482 39.5498 37.4182 40.0208 37.7502C42.6563 39.5957 45.8262 40.5218 49.0407 40.3854C52.2552 40.2489 55.3353 39.0574 57.8048 36.9952C59.8775 38.6571 62.4483 39.5749 65.1048 39.6012L65.3798 39.5982L65.5058 39.6022C65.9538 39.5922 66.3948 39.5512 66.8298 39.4932V79.2062C66.8277 80.3997 66.3526 81.5437 65.5085 82.3876C64.6645 83.2315 63.5204 83.7063 62.3268 83.7082V83.7082ZM79.0508 67.3692C79.0498 68.5153 78.594 69.6142 77.7834 70.4245C76.9729 71.2348 75.874 71.6904 74.7278 71.6912H69.0788V44.1272H74.7278C75.874 44.128 76.9729 44.5836 77.7834 45.3939C78.594 46.2042 79.0498 47.3031 79.0508 48.4492V67.3692V67.3692Z" fill="white"/>
<path d="M31.4268 44.877C30.8058 44.877 30.3018 45.381 30.3018 46.002V68.502C30.3018 68.8003 30.4203 69.0865 30.6313 69.2974C30.8422 69.5084 31.1284 69.627 31.4268 69.627C31.7251 69.627 32.0113 69.5084 32.2223 69.2974C32.4332 69.0865 32.5518 68.8003 32.5518 68.502V46.002C32.5518 45.381 32.0478 44.877 31.4268 44.877V44.877Z" fill="white"/>
<path d="M44.1768 44.877C43.5558 44.877 43.0518 45.381 43.0518 46.002V68.502C43.0518 68.8003 43.1703 69.0865 43.3813 69.2974C43.5922 69.5084 43.8784 69.627 44.1768 69.627C44.4751 69.627 44.7613 69.5084 44.9723 69.2974C45.1832 69.0865 45.3018 68.8003 45.3018 68.502V46.002C45.3018 45.381 44.7978 44.877 44.1768 44.877V44.877Z" fill="white"/>
<path d="M56.9268 44.877C56.3058 44.877 55.8018 45.381 55.8018 46.002V68.502C55.8018 68.8003 55.9203 69.0865 56.1313 69.2974C56.3422 69.5084 56.6284 69.627 56.9268 69.627C57.2251 69.627 57.5113 69.5084 57.7223 69.2974C57.9332 69.0865 58.0518 68.8003 58.0518 68.502V46.002C58.0518 45.381 57.5478 44.877 56.9268 44.877V44.877Z" fill="white"/>
<path d="M21.6382 20.771C22.4803 20.0232 23.4625 19.45 24.5278 19.0847C25.5932 18.7194 26.7204 18.5693 27.8442 18.643C28.1414 18.6595 28.4331 18.5583 28.6563 18.3615C28.8796 18.1646 29.0164 17.8879 29.0372 17.591C29.0466 17.4435 29.0268 17.2956 28.979 17.1558C28.9311 17.0159 28.8563 16.8869 28.7586 16.776C28.6609 16.6651 28.5423 16.5746 28.4096 16.5096C28.2769 16.4445 28.1327 16.4063 27.9852 16.397C25.1042 16.215 22.3212 17.169 20.1492 19.084C17.9772 20.999 16.6822 23.639 16.5012 26.521C16.492 26.6684 16.512 26.8163 16.5599 26.956C16.6078 27.0958 16.6828 27.2248 16.7806 27.3355C16.8784 27.4463 16.997 27.5368 17.1298 27.6017C17.2625 27.6666 17.4067 27.7048 17.5542 27.714C17.7017 27.7232 17.8495 27.7032 17.9893 27.6553C18.1291 27.6073 18.258 27.5323 18.3688 27.4345C18.4796 27.3368 18.57 27.2181 18.6349 27.0854C18.6999 26.9527 18.738 26.8084 18.7472 26.661C18.8156 25.5368 19.1063 24.4373 19.6025 23.4263C20.0988 22.4152 20.7907 21.5127 21.6382 20.771V20.771Z" fill="white"/>
<path d="M65.1759 35.1268C68.8199 35.1268 72.0149 31.4508 72.2979 26.9318C72.3166 26.6343 72.2163 26.3416 72.0193 26.1179C71.8222 25.8942 71.5444 25.7579 71.2469 25.7388C70.9493 25.721 70.6567 25.8218 70.4331 26.0191C70.2096 26.2164 70.0732 26.4943 70.0539 26.7918C69.8489 30.0338 67.5699 32.8778 65.1759 32.8778C64.8835 32.8866 64.606 33.0089 64.4022 33.2188C64.1984 33.4287 64.0845 33.7098 64.0845 34.0023C64.0845 34.2949 64.1984 34.5759 64.4022 34.7859C64.606 34.9958 64.8835 35.1181 65.1759 35.1268V35.1268Z" fill="white"/>
<path d="M30.6762 18.631C30.9762 18.631 31.2662 18.511 31.4762 18.301C31.6872 18.081 31.8062 17.801 31.8062 17.501C31.8062 17.211 31.6872 16.921 31.4762 16.711C31.0562 16.291 30.2962 16.291 29.8762 16.711C29.6762 16.911 29.5562 17.201 29.5562 17.501C29.5562 17.801 29.6762 18.091 29.8762 18.301C30.0862 18.511 30.3762 18.631 30.6762 18.631Z" fill="white"/>
</svg>
