<svg width="91" height="91" viewBox="0 0 91 91" fill="none" xmlns="http://www.w3.org/2000/svg">
<path d="M56.0718 35.0519C56.0602 35.0163 56.0479 34.981 56.0348 34.9459C52.1998 25.1259 51.2498 19.2909 50.8368 11.9599C50.7926 11.1839 50.7533 10.4075 50.7188 9.63093C51.2101 9.3408 51.609 8.91717 51.869 8.40929C52.1291 7.90142 52.2396 7.33015 52.1878 6.76193L51.9128 3.76593C51.8487 3.01599 51.5048 2.31763 50.9493 1.80976C50.3938 1.30188 49.6675 1.0217 48.9148 1.02493H43.9778C43.2253 1.02229 42.4993 1.30233 41.9435 1.80959C41.3877 2.31686 41.0427 3.01435 40.9768 3.76393L40.7008 6.76493C40.6503 7.33242 40.7616 7.9026 41.0217 8.40946C41.2819 8.91632 41.6803 9.33913 42.1708 9.62893C42.136 10.4062 42.0963 11.1832 42.0518 11.9599C41.6418 19.2959 40.6918 25.1369 36.8478 34.9729C32.7938 45.3509 32.6778 54.3709 32.6748 54.7589V86.9639C32.6761 87.7629 32.9943 88.5287 33.5595 89.0933C34.1247 89.658 34.8909 89.9754 35.6898 89.9759H57.1998C57.9988 89.9754 58.7649 89.658 59.3301 89.0933C59.8953 88.5287 60.2135 87.7629 60.2148 86.9639V54.7529C60.2138 54.6619 60.1658 45.5419 56.0718 35.0519ZM44.2978 12.0849C44.3688 10.8049 44.4188 9.84593 44.4488 8.92193C44.4572 8.65715 44.3719 8.39789 44.2081 8.18975C44.0442 7.98161 43.8122 7.83791 43.5528 7.78393C43.393 7.75102 43.2478 7.66841 43.1378 7.54793C43.0666 7.47001 43.0124 7.37811 42.9786 7.27807C42.9449 7.17804 42.9323 7.07208 42.9418 6.96693L43.2168 3.96993C43.2315 3.77905 43.3184 3.60095 43.4598 3.47184C43.6011 3.34274 43.7864 3.27233 43.9778 3.27493H48.9148C49.1058 3.27236 49.2905 3.34273 49.4314 3.47169C49.5722 3.60065 49.6586 3.77849 49.6728 3.96893L49.9478 6.96993C49.9573 7.07406 49.9452 7.17903 49.9123 7.2783C49.8795 7.37756 49.8265 7.469 49.7568 7.54693C49.6458 7.6668 49.5005 7.74955 49.3408 7.78393C48.8058 7.89393 48.4288 8.37293 48.4448 8.91793C48.4698 9.83893 48.5208 10.8009 48.5918 12.0859C49.0168 19.6489 49.9948 25.6629 53.9208 35.7099C53.9268 35.7279 53.9498 35.7989 53.9578 35.8159C54.463 37.1148 54.9216 38.4313 55.3328 39.7629L46.4248 44.5099L37.5438 39.8199C37.9613 38.4602 38.4286 37.1163 38.9448 35.7909C42.8968 25.6739 43.8748 19.6539 44.2978 12.0849V12.0849ZM57.9638 86.9639C57.9638 87.3839 57.6208 87.7259 57.1988 87.7259H35.6888C35.4864 87.7259 35.2923 87.6457 35.1489 87.5029C35.0055 87.3601 34.9246 87.1663 34.9238 86.9639V54.7679C34.9258 54.4849 35.0038 49.1329 36.9058 42.0309L45.8998 46.7799C46.0623 46.8658 46.2433 46.9105 46.4271 46.9101C46.6108 46.9098 46.7917 46.8644 46.9538 46.7779L55.9678 41.9739C57.9248 49.2479 57.9618 54.6849 57.9618 54.7529V86.9639H57.9638Z" fill="white"/>
<path d="M46.4438 75.4092C50.8598 75.4092 54.3188 69.6432 54.3188 62.2842C54.3188 54.9252 50.8598 49.1592 46.4438 49.1592C42.0278 49.1592 38.5688 54.9252 38.5688 62.2842C38.5688 69.6432 42.0278 75.4092 46.4438 75.4092ZM46.4438 51.4092C49.4928 51.4092 52.0688 56.3892 52.0688 62.2842C52.0688 68.1792 49.4928 73.1592 46.4438 73.1592C43.3948 73.1592 40.8188 68.1792 40.8188 62.2842C40.8188 56.3892 43.3958 51.4092 46.4438 51.4092Z" fill="white"/>
<path d="M55.3462 84.3182C55.3142 84.3112 52.0332 83.6592 46.5412 83.6592C41.0002 83.6592 37.5882 84.3092 37.5552 84.3162C37.4101 84.3444 37.272 84.4008 37.1488 84.4823C37.0256 84.5639 36.9196 84.6689 36.837 84.7914C36.7543 84.9138 36.6966 85.0514 36.6672 85.1962C36.6377 85.341 36.637 85.4901 36.6652 85.6352C36.6933 85.7802 36.7498 85.9183 36.8313 86.0415C36.9129 86.1648 37.0179 86.2707 37.1403 86.3534C37.2628 86.436 37.4004 86.4937 37.5452 86.5232C37.6899 86.5527 37.8391 86.5534 37.9842 86.5252C38.0162 86.5192 41.3332 85.9092 46.5412 85.9092C51.7982 85.9092 54.8682 86.5172 54.8982 86.5232C55.1906 86.5819 55.4945 86.5224 55.7431 86.3577C55.9918 86.1929 56.1652 85.9364 56.2252 85.6442C56.2844 85.3518 56.2251 85.0478 56.0603 84.7992C55.8954 84.5505 55.6386 84.3775 55.3462 84.3182Z" fill="white"/>
</svg>
