<svg width="91" height="91" viewBox="0 0 91 91" fill="none" xmlns="http://www.w3.org/2000/svg">
<path d="M72.2159 50.0371C69.7489 43.3781 66.1579 37.6301 61.5429 32.9541C61.1363 32.5445 60.7568 32.109 60.4069 31.6501L53.3029 19.0951V13.5721H53.3529C53.9244 13.571 54.4722 13.3435 54.8763 12.9394C55.2804 12.5353 55.5078 11.9875 55.5089 11.4161V6.57006C55.5078 5.99858 55.2804 5.45081 54.8763 5.04671C54.4722 4.64261 53.9244 4.41512 53.3529 4.41406H39.5339C38.9624 4.41512 38.4146 4.64261 38.0105 5.04671C37.6065 5.45081 37.379 5.99858 37.3779 6.57006V11.4161C37.379 11.9875 37.6065 12.5353 38.0105 12.9394C38.4146 13.3435 38.9624 13.571 39.5339 13.5721L39.5839 19.2691L32.6629 31.4731C32.3219 31.9191 31.9259 32.3701 31.4839 32.8131C21.7799 42.5181 16.6499 56.9771 16.6499 74.6271C16.6499 77.6531 16.7969 80.6781 17.0889 83.6151C17.2569 85.3081 18.6479 86.5861 20.3229 86.5861H72.5599C74.2359 86.5861 75.6269 85.3041 75.7949 83.6041C76.0889 80.6591 76.2369 77.6391 76.2369 74.6271C76.2369 65.5031 74.8849 57.2291 72.2159 50.0371V50.0371ZM39.6279 6.66406H53.2599V11.3221H52.1789C51.5579 11.3221 51.0539 11.8261 51.0539 12.4471V18.4511H41.8339V13.5721H48.1909C48.4893 13.5721 48.7754 13.4535 48.9864 13.2426C49.1974 13.0316 49.3159 12.7454 49.3159 12.4471C49.3159 12.1487 49.1974 11.8625 48.9864 11.6516C48.7754 11.4406 48.4893 11.3221 48.1909 11.3221H39.6279V6.66406V6.66406ZM73.5569 83.3811C73.5019 83.9261 73.0749 84.3361 72.5599 84.3361H20.3239C19.8099 84.3361 19.3819 83.9311 19.3279 83.3931C19.0415 80.4799 18.8986 77.5543 18.8999 74.6271C18.8999 57.5861 23.8009 43.6781 33.0769 34.4031C33.589 33.892 34.0655 33.3464 34.5029 32.7701C34.5325 32.7314 34.5593 32.6907 34.5829 32.6481L41.3579 20.7011H51.6269L58.4849 32.8231C58.5089 32.8661 58.5359 32.9061 58.5649 32.9451C58.9739 33.4901 59.4379 34.0251 59.9409 34.5351C64.3309 38.9821 67.7509 44.4611 70.1059 50.8191C72.6809 57.7601 73.9869 65.7701 73.9869 74.6271C73.9869 77.5641 73.8429 80.5101 73.5569 83.3811V83.3811Z" fill="white"/>
<path d="M46.4438 68.1641C58.4298 68.1641 67.8188 62.7281 67.8188 55.7891C67.8188 48.8501 58.4298 43.4141 46.4438 43.4141C34.4578 43.4141 25.0688 48.8501 25.0688 55.7891C25.0688 62.7281 34.4578 68.1641 46.4438 68.1641ZM46.4438 45.6641C56.8108 45.6641 65.5688 50.3011 65.5688 55.7891C65.5688 61.2771 56.8108 65.9141 46.4438 65.9141C36.0768 65.9141 27.3188 61.2771 27.3188 55.7891C27.3188 50.3011 36.0768 45.6641 46.4438 45.6641Z" fill="white"/>
<path d="M20.9899 79.4408C20.8467 79.4771 20.7121 79.5413 20.5937 79.6296C20.4753 79.718 20.3755 79.8288 20.3 79.9558C20.2245 80.0827 20.1748 80.2233 20.1537 80.3695C20.1325 80.5157 20.1404 80.6646 20.1769 80.8078C20.2127 80.9513 20.2766 81.0862 20.3648 81.2048C20.4531 81.3235 20.5639 81.4235 20.691 81.4991C20.8181 81.5747 20.9589 81.6243 21.1053 81.6452C21.2517 81.6661 21.4007 81.6578 21.5439 81.6208C21.9459 81.5188 31.5849 79.1128 46.7249 79.1128C62.0099 79.1128 70.9489 81.5208 71.3219 81.6238C71.6054 81.6901 71.9036 81.6441 72.1539 81.4952C72.4042 81.3464 72.5871 81.1064 72.6642 80.8256C72.7413 80.5448 72.7067 80.2451 72.5675 79.9893C72.4284 79.7335 72.1955 79.5416 71.9179 79.4538C71.5329 79.3488 62.3109 76.8628 46.7259 76.8628C31.3079 76.8628 21.4039 79.3358 20.9899 79.4408V79.4408Z" fill="white"/>
</svg>
