<svg width="91" height="91" viewBox="0 0 91 91" fill="none" xmlns="http://www.w3.org/2000/svg">
<path d="M56.9841 33.817L49.2308 28.8534V20.9105C49.6935 20.8626 50.124 20.6154 50.4378 20.2175C50.7516 19.8196 50.926 19.2998 50.9268 18.7601V12.6693C50.926 12.1297 50.7516 11.6099 50.4378 11.212C50.124 10.8141 49.6935 10.5669 49.2308 10.5189V9.15941C49.2301 8.58712 49.0342 8.03847 48.6859 7.63371C48.3376 7.22894 47.8654 7.00106 47.3728 7H39.6272C39.1346 7.00106 38.6624 7.22894 38.3141 7.63371C37.9658 8.03847 37.7699 8.58712 37.7692 9.15941V10.5179C37.3067 10.5661 36.8764 10.8134 36.5627 11.2113C36.2491 11.6092 36.0748 12.1289 36.0741 12.6683V18.7591C36.0741 19.8854 36.8204 20.8134 37.7692 20.9095V28.7723L29.8918 33.9181C27.3823 35.621 26 38.1938 26 41.1622V76.2644C26 80.5311 28.6387 84 31.8807 84H55.1201C58.363 84 61 80.5311 61 76.2644V41.1622C61 37.5952 58.9205 35.0263 56.9841 33.817V33.817ZM47.2918 9.25151V10.5099H39.7073V9.25151H47.2918ZM59.061 76.2644C59.061 79.2877 57.2927 81.7475 55.1201 81.7475H31.8807C29.7073 81.7475 27.939 79.2877 27.939 76.2644V41.1622C27.939 39.0268 28.98 37.1447 30.8544 35.8732L39.2144 30.4111C39.5195 30.2119 39.7073 29.8375 39.7073 29.431V20.9185H44.5186C44.7757 20.9185 45.0223 20.7999 45.2041 20.5887C45.386 20.3775 45.4881 20.091 45.4881 19.7923C45.4881 19.4936 45.386 19.2071 45.2041 18.9959C45.0223 18.7847 44.7757 18.666 44.5186 18.666H38.0122V12.7634H48.9878V18.666H48.2613C47.7261 18.666 47.2918 19.1706 47.2918 19.7923V29.5191C47.2918 29.9296 47.484 30.307 47.7933 30.5053L56.0577 35.7952C57.5098 36.7012 59.061 38.5883 59.061 41.1622V76.2644Z" fill="white"/>
<path d="M32.9857 72H54.0143C54.5584 72 55 71.4919 55 70.8659V42.1341C55 41.5081 54.5584 41 54.0143 41H32.9857C32.4416 41 32 41.5081 32 42.1341V70.8659C32 71.4919 32.4416 72 32.9857 72ZM33.9714 43.2693H53.0286V69.7327H33.9714V43.2693Z" fill="white"/>
<path d="M56.2509 77.1087C55.752 76.9955 51.1538 76 43.6397 76C35.8335 76 30.9559 77.0602 30.7526 77.1053C30.5037 77.1605 30.287 77.3119 30.1501 77.5262C30.0133 77.7405 29.9676 78.0001 30.023 78.248C30.0784 78.4959 30.2304 78.7117 30.4456 78.848C30.6607 78.9843 30.9215 79.0298 31.1704 78.9747C31.2182 78.9627 36.0436 77.9145 43.6406 77.9145C50.9445 77.9145 55.3461 78.8666 55.8263 78.9764C56.075 79.0324 56.3358 78.9878 56.5515 78.8524C56.7672 78.7169 56.92 78.5016 56.9763 78.254C57.0326 78.0063 56.9878 77.7465 56.8518 77.5317C56.7157 77.3169 56.4996 77.1648 56.2509 77.1087V77.1087Z" fill="white"/>
</svg>
