<svg width="91" height="91" viewBox="0 0 91 91" fill="none" xmlns="http://www.w3.org/2000/svg">
<path d="M71.8461 55.5448C70.1551 49.7948 65.4051 37.5478 63.0881 35.2318C61.3071 33.4498 58.2601 32.5458 54.0311 32.5458C53.5231 32.5458 53.3101 32.1388 53.2201 31.7618L53.2241 26.8608C53.5823 26.5061 53.867 26.0843 54.0621 25.6194C54.2572 25.1546 54.3588 24.6559 54.3611 24.1518V22.6068C54.3611 21.8248 53.9411 21.1078 53.2591 20.7258L53.2221 20.6948C53.2451 20.1948 53.4741 19.6188 53.9551 18.4388L54.0241 18.2678C54.1511 17.9538 54.2911 17.6118 54.4401 17.2328C55.4831 14.5798 55.5551 12.1208 54.6571 9.92481C53.5421 7.19781 48.7191 6.90381 46.6981 6.90381L46.5181 6.90581L46.3091 6.90481C44.2851 6.90481 39.4561 7.19881 38.3421 9.92581C37.4431 12.1218 37.5151 14.5808 38.5581 17.2328C38.7321 17.6758 38.8931 18.0708 39.0441 18.4428C39.5261 19.6208 39.7531 20.1968 39.7761 20.6978C39.7701 20.7058 39.7671 20.7098 39.7761 20.7068C39.4317 20.8907 39.1437 21.1647 38.9429 21.4995C38.7421 21.8343 38.6361 22.2174 38.6361 22.6078V24.1528C38.6361 25.1638 39.0471 26.1298 39.7781 26.8648V31.7568C39.6861 32.1378 39.4701 32.5478 38.9671 32.5478C34.7381 32.5478 31.6911 33.4508 29.9121 35.2328C27.6301 37.5118 22.7991 49.9438 21.1521 55.5468C19.0331 62.7508 17.4131 68.5288 17.4131 71.9008C17.4131 75.9398 20.3701 79.0888 21.6471 80.4488C22.4001 81.2538 23.4741 82.2288 24.2381 82.9018C25.1069 83.6736 26.229 84.0992 27.3911 84.0978H65.6051C66.7657 84.099 67.8865 83.6746 68.7551 82.9048C69.5211 82.2288 70.5931 81.2548 71.3621 80.4328C72.6251 79.0878 75.5811 75.9398 75.5811 71.9008C75.5841 68.5238 73.9651 62.7468 71.8461 55.5448V55.5448ZM40.4261 10.7758C40.8101 9.83581 43.2851 9.15381 46.3111 9.15381L46.5211 9.15481L46.7001 9.15281C49.7201 9.15281 52.1921 9.83581 52.5771 10.7758C53.2491 12.4178 53.1711 14.3128 52.3481 16.4078C52.2021 16.7778 52.0661 17.1128 51.9421 17.4208L51.8731 17.5898C51.5301 18.4308 51.2831 19.0618 51.1331 19.6548H41.8701C41.7191 19.0598 41.4711 18.4258 41.1241 17.5758C40.9649 17.188 40.8086 16.7989 40.6551 16.4088C39.8301 14.3138 39.7531 12.4188 40.4261 10.7758V10.7758ZM69.7091 78.9088C69.0151 79.6498 67.9991 80.5718 67.2661 81.2188C66.8091 81.6243 66.219 81.8478 65.6081 81.8468H27.3931C26.7802 81.8477 26.1885 81.6227 25.7311 81.2148C25.0001 80.5708 23.9831 79.6498 23.2741 78.8908C22.1941 77.7418 19.6651 75.0468 19.6651 71.8998C19.6651 68.8288 21.2461 63.2088 23.3131 56.1798C25.1901 49.7898 29.8281 38.4968 31.5051 36.8218C32.8471 35.4778 35.3591 34.7968 38.9691 34.7968C40.8251 34.7968 41.7671 33.3378 42.0091 32.0888L42.0271 27.4398H46.8971C47.1955 27.4398 47.4816 27.3213 47.6926 27.1103C47.9036 26.8993 48.0221 26.6132 48.0221 26.3148C48.0221 26.0164 47.9036 25.7303 47.6926 25.5193C47.4816 25.3083 47.1955 25.1898 46.8971 25.1898H41.2991C41.041 24.9053 40.895 24.5368 40.8881 24.1528L40.8891 22.6618C41.1701 22.4928 41.4591 22.2348 41.6771 21.9068H51.3231C51.5611 22.2638 51.8731 22.5208 52.1111 22.6598V24.1528C52.1111 24.6338 51.8711 25.1008 51.4531 25.4328L51.2341 25.6068L51.1231 25.8608C51.0211 26.0888 50.9711 26.3768 50.9711 26.7148V31.8788L50.9911 32.0878C51.2271 33.3368 52.1651 34.7968 54.0321 34.7968C57.5911 34.7968 60.1731 35.4968 61.4971 36.8228C63.1711 38.4968 67.8091 49.7898 69.6881 56.1798C71.7541 63.2058 73.3341 68.8258 73.3341 71.8998C73.3341 75.0468 70.8051 77.7408 69.7091 78.9088V78.9088Z" fill="white"/>
<path d="M66.525 78.7552C66.222 78.5742 58.964 74.3472 46.716 74.3472C34.537 74.3472 26.825 78.5452 26.503 78.7252C26.2421 78.8698 26.0495 79.1122 25.9673 79.399C25.8852 79.6857 25.9203 79.9933 26.065 80.2542C26.2097 80.515 26.452 80.7077 26.7388 80.7898C27.0255 80.872 27.3331 80.8368 27.594 80.6922C27.896 80.5252 35.113 76.5972 46.716 76.5972C58.353 76.5972 65.307 80.6492 65.376 80.6892C65.5029 80.7649 65.6435 80.8148 65.7897 80.836C65.936 80.8572 66.0849 80.8494 66.2281 80.8128C66.3713 80.7763 66.5059 80.7119 66.6241 80.6232C66.7423 80.5345 66.8418 80.4234 66.917 80.2962C66.993 80.1694 67.0432 80.0288 67.0646 79.8826C67.0861 79.7363 67.0783 79.5873 67.0419 79.444C67.0055 79.3008 66.941 79.1662 66.8523 79.0479C66.7636 78.9297 66.6523 78.8302 66.525 78.7552V78.7552Z" fill="white"/>
<path d="M33.7281 67.8669C33.9801 67.9129 39.9821 69.0069 47.4451 69.0069H47.4471C51.8511 69.0069 55.8421 68.6209 59.3081 67.8599C59.8251 67.7469 60.1931 67.2899 60.1931 66.7609V45.4719C60.1932 45.3035 60.1555 45.1374 60.0828 44.9856C60.01 44.8338 59.9042 44.7002 59.773 44.5947C59.6418 44.4893 59.4887 44.4146 59.3248 44.3762C59.1609 44.3378 58.9905 44.3367 58.8261 44.3729C58.7801 44.3829 54.0741 45.3959 46.8321 45.3969C42.5721 45.3968 38.319 45.0503 34.1151 44.3609C33.9541 44.3341 33.7891 44.3428 33.6317 44.3863C33.4744 44.4298 33.3283 44.5071 33.2039 44.6127C33.0794 44.7183 32.9794 44.8498 32.9109 44.998C32.8424 45.1462 32.807 45.3076 32.8071 45.4709V66.7599C32.8081 67.3029 33.1951 67.7689 33.7281 67.8669V67.8669ZM35.0581 46.7859C38.9381 47.3569 42.8921 47.6469 46.8321 47.6469C52.0731 47.6459 55.9941 47.1399 57.9431 46.8219V65.8439C54.8411 66.4489 51.3161 66.7559 47.4471 66.7559H47.4451C43.2981 66.7427 39.1576 66.4249 35.0571 65.8049V46.7859H35.0581Z" fill="white"/>
</svg>
