<svg width="91" height="91" viewBox="0 0 91 91" fill="none" xmlns="http://www.w3.org/2000/svg">
<path d="M57.7479 82.0679C57.5599 81.9579 53.0719 79.3589 45.6299 79.3589C38.4839 79.3589 33.8049 81.7599 33.2949 82.0339L34.3589 84.0159C34.8179 83.7699 39.0339 81.6089 45.6299 81.6089C52.4639 81.6089 56.5639 83.9819 56.6039 84.0049C56.7311 84.08 56.8718 84.1293 57.0181 84.1501C57.1643 84.1708 57.3132 84.1625 57.4563 84.1257C57.5993 84.0889 57.7337 84.0242 57.8518 83.9355C57.9699 83.8467 58.0693 83.7356 58.1444 83.6084C58.2195 83.4812 58.2689 83.3405 58.2896 83.1942C58.3103 83.048 58.302 82.8991 58.2652 82.756C58.2284 82.613 58.1638 82.4786 58.075 82.3605C57.9863 82.2424 57.8751 82.143 57.7479 82.0679V82.0679Z" fill="white"/>
<path d="M67.926 53.6838C66.215 49.8328 63.542 48.1708 60.438 46.2398C59.361 45.5718 58.021 44.7418 56.615 43.7218C54.219 41.9848 54.381 41.2528 54.918 38.8318C55.185 37.6368 55.486 36.2808 55.486 34.6088C55.486 31.8158 54.759 28.8388 54.047 25.9218C53.488 23.6378 52.961 21.4798 52.961 19.9598C52.961 18.0128 53.423 16.5648 53.81 15.6948C54.0807 15.0776 54.1868 14.4007 54.1181 13.7302C54.0494 13.0597 53.8082 12.4184 53.418 11.8688L54.56 7.46284C54.7923 6.5536 54.6595 5.58956 54.19 4.77698C53.7205 3.9644 52.9517 3.36781 52.048 3.11485L48.339 2.08985C46.4804 1.58169 44.5194 1.58204 42.661 2.09085L38.955 3.11385C38.0506 3.36662 37.281 3.96333 36.811 4.77631C36.341 5.58928 36.2078 6.55393 36.44 7.46385L37.582 11.8698C37.1924 12.4193 36.9515 13.0601 36.8827 13.7302C36.8138 14.4002 36.9193 15.0766 37.189 15.6938C37.577 16.5678 38.039 18.0168 38.039 19.9608C38.039 21.4838 37.511 23.6468 36.948 25.9488C36.243 28.8308 35.513 31.8108 35.513 34.6088C35.513 36.2748 35.813 37.6288 36.079 38.8318C36.618 41.2528 36.78 41.9838 34.384 43.7218C32.971 44.7448 31.635 45.5738 30.552 46.2438C27.457 48.1688 24.785 49.8318 23.073 53.6828C21.038 58.2598 21.482 65.9248 24.262 74.1858C25.923 79.1228 27.845 84.1158 28.843 86.6548C29.1475 87.4343 29.6809 88.1033 30.3729 88.5738C31.0649 89.0443 31.8832 89.2943 32.72 89.2908H58.276C59.113 89.294 59.9314 89.0437 60.6234 88.5728C61.3155 88.1019 61.8487 87.4326 62.153 86.6528C63.382 83.5248 65.175 78.8228 66.736 74.1858C69.516 65.9248 69.96 58.2608 67.926 53.6838V53.6838ZM39.552 5.28385L43.258 4.26085C44.7247 3.85683 46.2732 3.85648 47.74 4.25985L51.449 5.28485C52.144 5.47485 52.561 6.19985 52.381 6.89885L51.394 10.7088H39.605L38.618 6.89885C38.5317 6.56099 38.5812 6.20278 38.7557 5.90092C38.9303 5.59906 39.2161 5.37756 39.552 5.28385V5.28385ZM39.137 26.4708C39.73 24.0458 40.289 21.7558 40.289 19.9608C40.289 17.6228 39.722 15.8548 39.246 14.7808C39.1246 14.5012 39.0835 14.1933 39.1273 13.8916C39.1711 13.5899 39.2981 13.3064 39.494 13.0728L39.589 12.9588H51.41L51.508 13.0768C51.906 13.5528 52.002 14.2218 51.753 14.7808C51.277 15.8508 50.71 17.6178 50.71 19.9608C50.71 21.7518 51.269 24.0368 51.869 26.4958C52.423 28.7598 52.984 31.0838 53.168 33.2428C53.11 33.2338 53.059 33.2088 52.999 33.2088H49.544C49.172 30.6108 47.529 28.7088 45.499 28.7088C43.469 28.7088 41.826 30.6108 41.454 33.2088H37.999C37.939 33.2088 37.888 33.2338 37.831 33.2428C38.015 31.0788 38.579 28.7488 39.137 26.4708V26.4708ZM47.374 34.3338C47.374 36.3228 46.386 37.7088 45.499 37.7088C44.612 37.7088 43.624 36.3228 43.624 34.3338C43.624 32.3448 44.612 30.9588 45.499 30.9588C46.386 30.9588 47.374 32.3448 47.374 34.3338ZM64.604 73.4698C63.059 78.0618 61.28 82.7259 60.061 85.8279C59.9207 86.1864 59.6752 86.494 59.3568 86.7105C59.0384 86.927 58.662 87.0421 58.277 87.0408H32.722C32.3373 87.0425 31.9611 86.9277 31.6429 86.7116C31.3247 86.4954 31.0793 86.1881 30.939 85.8298C29.949 83.3118 28.042 78.3588 26.397 73.4698C23.792 65.7288 23.319 58.6738 25.131 54.5978C26.562 51.3768 28.735 50.0258 31.747 48.1518C32.851 47.4668 34.226 46.6158 35.705 45.5448C39.299 42.9398 38.848 40.9108 38.275 38.3368C38.082 37.4688 37.876 36.5008 37.799 35.4198C37.866 35.4328 37.928 35.4598 37.998 35.4598H41.453C41.825 38.0578 43.468 39.9598 45.498 39.9598C47.528 39.9598 49.171 38.0578 49.543 35.4598H52.998C53.069 35.4598 53.131 35.4328 53.198 35.4198C53.121 36.5038 52.914 37.4738 52.719 38.3448C52.15 40.9118 51.699 42.9398 55.292 45.5448C56.764 46.6118 58.143 47.4658 59.258 48.1568C62.265 50.0268 64.438 51.3788 65.867 54.5978C67.681 58.6728 67.208 65.7278 64.604 73.4698V73.4698Z" fill="white"/>
<path d="M45.499 51.209C36.457 51.209 29.374 55.327 29.374 60.584C29.374 65.841 36.457 69.959 45.499 69.959C54.541 69.959 61.624 65.841 61.624 60.584C61.624 55.327 54.541 51.209 45.499 51.209ZM45.499 67.709C37.978 67.709 31.624 64.446 31.624 60.584C31.624 56.722 37.978 53.459 45.499 53.459C53.02 53.459 59.374 56.722 59.374 60.584C59.374 64.446 53.021 67.709 45.499 67.709Z" fill="white"/>
</svg>
