<svg width="91" height="91" viewBox="0 0 91 91" fill="none" xmlns="http://www.w3.org/2000/svg">
<path d="M57.1528 75.145C56.3448 70.245 55.2398 63.534 55.2398 59.624C55.2398 56.249 57.0508 42.741 57.6288 39.198C57.7423 38.508 57.7012 37.8014 57.5084 37.1292C57.3155 36.457 56.9759 35.836 56.5138 35.311C55.5468 34.209 53.7798 32.21 52.8128 31.196C52.0118 30.358 51.8358 28.872 51.8338 28.872H51.8348L50.8258 12.73L51.0658 12.251C51.2248 11.952 51.3118 11.61 51.3178 11.242V5.48803C51.3168 4.91655 51.0893 4.36878 50.6852 3.96468C50.2811 3.56058 49.7333 3.33309 49.1618 3.33203H41.8378C41.2663 3.33282 40.7183 3.56023 40.3142 3.96439C39.91 4.36854 39.6826 4.91647 39.6818 5.48803V11.262C39.6858 11.606 39.7678 11.935 39.9188 12.224L40.1728 12.73L39.1688 28.814C39.1098 29.343 38.8278 30.524 38.1858 31.196C37.2148 32.215 35.4508 34.211 34.4848 35.31C34.0225 35.8348 33.6826 36.4558 33.4898 37.128C33.2969 37.8003 33.256 38.507 33.3698 39.197C34.0018 43.076 35.7588 56.719 35.7588 59.623C35.7588 63.543 34.6508 70.261 33.8368 75.199C33.2618 78.688 32.8818 80.993 32.8818 82.113C32.8818 85.06 33.7908 86.45 34.1868 86.917C34.5968 87.395 35.1938 87.668 35.8228 87.668H55.1758C55.8058 87.668 56.4028 87.395 56.8168 86.913C57.1218 86.554 58.1178 85.148 58.1178 82.113C58.1168 80.995 57.7378 78.697 57.1528 75.145V75.145ZM55.1308 85.418L35.8988 85.456C35.8678 85.419 35.1328 84.525 35.1328 82.113C35.1328 81.177 35.5408 78.7 36.0628 75.532C36.8848 70.551 38.0098 63.727 38.0098 59.623C38.0098 56.497 36.2688 42.989 35.5918 38.835C35.532 38.4729 35.5534 38.102 35.6546 37.7491C35.7558 37.3963 35.9342 37.0704 36.1768 36.795C37.1308 35.709 38.8718 33.738 39.8148 32.75C41.0858 31.419 41.3638 29.446 41.4118 29.01L42.3728 13.623H46.6128C46.9112 13.623 47.1974 13.5045 47.4083 13.2935C47.6193 13.0825 47.7378 12.7964 47.7378 12.498C47.7378 12.1997 47.6193 11.9135 47.4083 11.7025C47.1974 11.4916 46.9112 11.373 46.6128 11.373H41.9998L41.9318 11.24V5.58203H49.0678V11.217L48.5428 12.266L49.5938 29.062C49.6178 29.294 49.8748 31.378 51.1838 32.75C52.1228 33.735 53.8678 35.708 54.8238 36.796C55.3148 37.357 55.5288 38.101 55.4088 38.837C54.8048 42.535 52.9908 56.076 52.9908 59.624C52.9908 63.718 54.1138 70.534 54.9458 75.586C55.4608 78.712 55.8678 81.181 55.8678 82.114C55.8668 84.302 55.2648 85.237 55.1308 85.418V85.418Z" fill="white"/>
<path d="M39.904 54.1192C40.014 54.1552 42.644 54.9942 45.895 54.9942C47.839 54.9942 49.609 54.6932 51.154 54.0982C51.588 53.9312 51.875 53.5142 51.875 53.0482V37.4572C51.8744 37.2753 51.83 37.0962 51.7453 36.9351C51.6607 36.7741 51.5385 36.6359 51.389 36.5322C51.2388 36.429 51.0659 36.3636 50.885 36.3415C50.7042 36.3194 50.5206 36.3412 50.35 36.4052C50.331 36.4132 48.475 37.1002 45.639 37.1012C43.938 37.1012 42.23 36.8572 40.562 36.3752C40.3944 36.3268 40.2179 36.3181 40.0464 36.3496C39.8749 36.3812 39.7131 36.4522 39.5737 36.557C39.4343 36.6619 39.3212 36.7977 39.2434 36.9537C39.1655 37.1098 39.125 37.2818 39.125 37.4562V53.0482C39.125 53.5372 39.439 53.9692 39.904 54.1192V54.1192ZM41.375 38.8982C42.785 39.1992 44.214 39.3512 45.639 39.3512C47.298 39.3512 48.666 39.1442 49.625 38.9352V52.2442C48.511 52.5762 47.26 52.7442 45.896 52.7442C44 52.7442 42.313 52.4152 41.376 52.1882V38.8982H41.375Z" fill="white"/>
<path d="M51.678 79.8649C46.002 81.2869 38.744 79.8679 38.672 79.8529C38.3793 79.7944 38.0754 79.8546 37.8271 80.0202C37.5788 80.1858 37.4065 80.4432 37.348 80.7359C37.2895 81.0285 37.3497 81.3324 37.5153 81.5807C37.6809 81.829 37.9383 82.0014 38.231 82.0599C38.439 82.1009 41.759 82.7509 45.764 82.7509C47.846 82.7509 50.113 82.5749 52.225 82.0479C52.5145 81.9753 52.7633 81.7908 52.9167 81.5348C53.0701 81.2788 53.1155 80.9724 53.043 80.6829C52.9705 80.3934 52.7859 80.1446 52.5299 79.9912C52.2739 79.8378 51.9675 79.7923 51.678 79.8649V79.8649Z" fill="white"/>
</svg>
