<svg width="91" height="91" viewBox="0 0 91 91" fill="none" xmlns="http://www.w3.org/2000/svg">
<path d="M56.0371 82.272C55.8771 82.217 52.0371 80.939 45.6141 80.939C39.1761 80.939 35.1461 82.21 34.9781 82.264C34.8374 82.3091 34.707 82.3816 34.5943 82.4772C34.4816 82.5727 34.3888 82.6896 34.3212 82.821C34.2537 82.9525 34.2127 83.0959 34.2006 83.2432C34.1885 83.3905 34.2055 83.5387 34.2506 83.6795C34.2958 83.8202 34.3683 83.9506 34.4638 84.0633C34.5594 84.176 34.6763 84.2688 34.8077 84.3364C34.9392 84.4039 35.0826 84.4449 35.2299 84.457C35.3772 84.4692 35.5254 84.4521 35.6661 84.407C35.7041 84.394 39.5281 83.189 45.6141 83.189C51.6701 83.189 55.2771 84.39 55.3121 84.403C55.452 84.451 55.6001 84.4709 55.7477 84.4615C55.8953 84.452 56.0396 84.4135 56.1722 84.3481C56.3049 84.2826 56.4232 84.1916 56.5205 84.0802C56.6178 83.9688 56.6921 83.8392 56.7391 83.699C56.8352 83.4166 56.8151 83.1077 56.6835 82.8402C56.5519 82.5726 56.3194 82.3682 56.0371 82.272V82.272Z" fill="white"/>
<path d="M60.0192 40.1739C59.8422 34.4879 56.4382 29.5159 51.2662 27.2909V4.86889C51.2654 4.29733 51.038 3.7494 50.6339 3.34524C50.2297 2.94109 49.6818 2.71368 49.1102 2.71289H41.8912C41.3197 2.71368 40.7718 2.94109 40.3676 3.34524C39.9634 3.7494 39.736 4.29733 39.7352 4.86889V27.2909C37.1994 28.3752 35.0273 30.1633 33.476 32.4437C31.9248 34.724 31.0594 37.401 30.9822 40.1579C30.9739 40.2573 30.9696 40.3571 30.9692 40.4569V83.1859C30.9706 84.5384 31.5084 85.8352 32.4647 86.7917C33.421 87.7482 34.7177 88.2863 36.0702 88.2879H54.9282C56.2812 88.2866 57.5783 87.7487 58.5351 86.7922C59.492 85.8357 60.0304 84.5388 60.0322 83.1859V40.4569C60.0311 40.3624 60.0268 40.268 60.0192 40.1739V40.1739ZM33.2192 48.4629H57.7782L57.7812 74.7129H33.2192V48.4629V48.4629ZM33.2272 40.2639C33.2912 37.8461 34.0718 35.5017 35.4698 33.5281C36.8679 31.5544 38.8206 30.0404 41.0802 29.1779H45.4072C45.7056 29.1779 45.9918 29.0594 46.2027 28.8484C46.4137 28.6374 46.5322 28.3513 46.5322 28.0529C46.5322 27.7545 46.4137 27.4684 46.2027 27.2574C45.9918 27.0464 45.7056 26.9279 45.4072 26.9279H41.9852V4.96289H49.0162V28.0529C49.0162 28.5249 49.3102 28.9459 49.7522 29.1089C54.4752 30.8469 57.6232 35.2259 57.7762 40.3499L57.7772 46.2129H33.2192V40.4569L33.2272 40.2639V40.2639ZM54.9282 86.0369H36.0692C35.3133 86.0358 34.5886 85.735 34.0541 85.2003C33.5196 84.6657 33.219 83.9409 33.2182 83.1849V76.9619H57.7802L57.7812 83.1849C57.7802 83.9411 57.4792 84.6661 56.9444 85.2007C56.4095 85.7354 55.6845 86.0361 54.9282 86.0369V86.0369Z" fill="white"/>
<path d="M36.395 50.7129C35.774 50.7129 35.27 51.2169 35.27 51.8379V68.3379C35.27 68.6363 35.3885 68.9224 35.5995 69.1334C35.8105 69.3444 36.0967 69.4629 36.395 69.4629C36.6934 69.4629 36.9795 69.3444 37.1905 69.1334C37.4015 68.9224 37.52 68.6363 37.52 68.3379V51.8379C37.52 51.2169 37.016 50.7129 36.395 50.7129V50.7129Z" fill="white"/>
<path d="M35.5971 70.5421C35.3871 70.7521 35.2671 71.0421 35.2671 71.3421C35.2671 71.6321 35.3871 71.9221 35.5971 72.1321C35.8071 72.3421 36.0971 72.462 36.3971 72.462C36.6933 72.4594 36.9767 72.3406 37.1862 72.1311C37.3956 71.9216 37.5145 71.6383 37.5171 71.3421C37.5171 71.0421 37.3971 70.7521 37.1871 70.5421C36.7771 70.1221 36.0271 70.1221 35.5971 70.5421V70.5421Z" fill="white"/>
</svg>
