<svg width="194" height="80" viewBox="0 0 194 80" fill="none" xmlns="http://www.w3.org/2000/svg">
<g filter="url(#filter0_d)">
<path d="M82.1684 54.32H78.8384L78.8484 60H77.2384V53H82.1784L82.1684 54.32ZM87.6962 53C88.3162 53 88.8528 53.1033 89.3062 53.31C89.7662 53.5167 90.1195 53.81 90.3662 54.19C90.6128 54.57 90.7362 55.02 90.7362 55.54C90.7362 56.0533 90.6128 56.5033 90.3662 56.89C90.1195 57.27 89.7662 57.5633 89.3062 57.77C88.8528 57.97 88.3162 58.07 87.6962 58.07H86.2862V60H84.6662V53H87.6962ZM87.6062 56.75C88.0928 56.75 88.4628 56.6467 88.7162 56.44C88.9695 56.2267 89.0962 55.9267 89.0962 55.54C89.0962 55.1467 88.9695 54.8467 88.7162 54.64C88.4628 54.4267 88.0928 54.32 87.6062 54.32H86.2862V56.75H87.6062ZM97.6933 58.5H94.4433L93.8233 60H92.1633L95.2833 53H96.8833L100.013 60H98.3133L97.6933 58.5ZM97.1833 57.27L96.0733 54.59L94.9633 57.27H97.1833ZM109.72 58.68V61.45H108.22V60H103.28V61.45H101.78L101.79 58.68H102.07C102.49 58.6667 102.787 58.36 102.96 57.76C103.133 57.16 103.24 56.3033 103.28 55.19L103.36 53H108.74V58.68H109.72ZM104.71 55.34C104.677 56.1733 104.607 56.8733 104.5 57.44C104.393 58 104.23 58.4133 104.01 58.68H107.14V54.32H104.74L104.71 55.34ZM118.631 53L115.651 58.54C115.364 59.0733 115.017 59.4767 114.611 59.75C114.211 60.0233 113.774 60.16 113.301 60.16C112.934 60.16 112.554 60.08 112.161 59.92L112.551 58.69C112.831 58.7767 113.064 58.82 113.251 58.82C113.451 58.82 113.631 58.7733 113.791 58.68C113.951 58.58 114.097 58.4267 114.231 58.22L114.291 58.14L111.531 53H113.261L115.121 56.76L117.041 53H118.631ZM124.123 60.12C123.409 60.12 122.763 59.9667 122.183 59.66C121.609 59.3467 121.156 58.9167 120.823 58.37C120.496 57.8167 120.333 57.1933 120.333 56.5C120.333 55.8067 120.496 55.1867 120.823 54.64C121.156 54.0867 121.609 53.6567 122.183 53.35C122.763 53.0367 123.413 52.88 124.133 52.88C124.739 52.88 125.286 52.9867 125.773 53.2C126.266 53.4133 126.679 53.72 127.013 54.12L125.973 55.08C125.499 54.5333 124.913 54.26 124.213 54.26C123.779 54.26 123.393 54.3567 123.053 54.55C122.713 54.7367 122.446 55 122.253 55.34C122.066 55.68 121.973 56.0667 121.973 56.5C121.973 56.9333 122.066 57.32 122.253 57.66C122.446 58 122.713 58.2667 123.053 58.46C123.393 58.6467 123.779 58.74 124.213 58.74C124.913 58.74 125.499 58.4633 125.973 57.91L127.013 58.87C126.679 59.2767 126.266 59.5867 125.773 59.8C125.279 60.0133 124.729 60.12 124.123 60.12ZM140.271 60L140.261 55.81L138.201 59.26H137.481L135.421 55.89V60H133.901V53H135.241L137.861 57.35L140.441 53H141.781L141.791 60H140.271ZM149.769 58.5H146.519L145.899 60H144.239L147.359 53H148.959L152.089 60H150.389L149.769 58.5ZM149.259 57.27L148.149 54.59L147.039 57.27H149.259ZM157.548 53C158.168 53 158.704 53.1033 159.158 53.31C159.618 53.5167 159.971 53.81 160.218 54.19C160.464 54.57 160.588 55.02 160.588 55.54C160.588 56.0533 160.464 56.5033 160.218 56.89C159.971 57.27 159.618 57.5633 159.158 57.77C158.704 57.97 158.168 58.07 157.548 58.07H156.138V60H154.518V53H157.548ZM157.458 56.75C157.944 56.75 158.314 56.6467 158.568 56.44C158.821 56.2267 158.948 55.9267 158.948 55.54C158.948 55.1467 158.821 54.8467 158.568 54.64C158.314 54.4267 157.944 54.32 157.458 54.32H156.138V56.75H157.458ZM165.866 57.18H164.746V60H163.136V53H164.746V55.83H165.906L167.746 53H169.456L167.166 56.38L169.526 60H167.686L165.866 57.18ZM177.205 58.7V60H171.785V53H177.075V54.3H173.395V55.82H176.645V57.08H173.395V58.7H177.205ZM185.364 54.32H183.124V60H181.524V54.32H179.294V53H185.364V54.32Z" fill="white"/>
</g>
<g filter="url(#filter1_d)">
<path d="M84.05 30.21L80.72 33.63V39H76.82V18H80.72V28.77L91.1 18H95.48L86.66 27.39L96.02 39H91.46L84.05 30.21ZM107.634 39.3C105.514 39.3 103.594 38.84 101.874 37.92C100.174 36.98 98.8338 35.69 97.8538 34.05C96.8938 32.41 96.4138 30.56 96.4138 28.5C96.4138 26.44 96.9038 24.59 97.8838 22.95C98.8638 21.31 100.204 20.03 101.904 19.11C103.624 18.17 105.544 17.7 107.664 17.7C109.384 17.7 110.954 18 112.374 18.6C113.794 19.2 114.994 20.07 115.974 21.21L113.454 23.58C111.934 21.94 110.064 21.12 107.844 21.12C106.404 21.12 105.114 21.44 103.974 22.08C102.834 22.7 101.944 23.57 101.304 24.69C100.664 25.81 100.344 27.08 100.344 28.5C100.344 29.92 100.664 31.19 101.304 32.31C101.944 33.43 102.834 34.31 103.974 34.95C105.114 35.57 106.404 35.88 107.844 35.88C110.064 35.88 111.934 35.05 113.454 33.39L115.974 35.79C114.994 36.93 113.784 37.8 112.344 38.4C110.924 39 109.354 39.3 107.634 39.3ZM135.461 35.73V39H119.711V18H135.041V21.27H123.611V26.73H133.751V29.94H123.611V35.73H135.461ZM158.468 18V39H155.258L143.678 24.78V39H139.808V18H143.018L154.598 32.22V18H158.468ZM168.355 21.3H161.395V18H179.215V21.3H172.255V39H168.355V21.3Z" fill="#F05A3F"/>
</g>
<g filter="url(#filter2_d)">
<line y1="-0.748177" x2="110" y2="-0.748177" transform="matrix(1 0 3.90519e-06 1 74 45)" stroke="#F05A3F" stroke-width="1.49635"/>
</g>
<g filter="url(#filter3_d)">
<path d="M69 33.0075L9 64.1353L34.3125 10L63.375 70" stroke="#F05A3F" stroke-width="5"/>
</g>
<defs>
<filter id="filter0_d" x="73.5393" y="49.1809" width="120.455" height="20.8999" filterUnits="userSpaceOnUse" color-interpolation-filters="sRGB">
<feFlood flood-opacity="0" result="BackgroundImageFix"/>
<feColorMatrix in="SourceAlpha" type="matrix" values="0 0 0 0 0 0 0 0 0 0 0 0 0 0 0 0 0 0 127 0"/>
<feOffset dx="2.46599" dy="2.46599"/>
<feGaussianBlur stdDeviation="3.08249"/>
<feColorMatrix type="matrix" values="0 0 0 0 0 0 0 0 0 0 0 0 0 0 0 0 0 0 0.25 0"/>
<feBlend mode="normal" in2="BackgroundImageFix" result="effect1_dropShadow"/>
<feBlend mode="normal" in="SourceGraphic" in2="effect1_dropShadow" result="shape"/>
</filter>
<filter id="filter1_d" x="73.1208" y="14.0012" width="114.725" height="33.9299" filterUnits="userSpaceOnUse" color-interpolation-filters="sRGB">
<feFlood flood-opacity="0" result="BackgroundImageFix"/>
<feColorMatrix in="SourceAlpha" type="matrix" values="0 0 0 0 0 0 0 0 0 0 0 0 0 0 0 0 0 0 127 0"/>
<feOffset dx="2.46599" dy="2.46599"/>
<feGaussianBlur stdDeviation="3.08249"/>
<feColorMatrix type="matrix" values="0 0 0 0 0 0 0 0 0 0 0 0 0 0 0 0 0 0 0.25 0"/>
<feBlend mode="normal" in2="BackgroundImageFix" result="effect1_dropShadow"/>
<feBlend mode="normal" in="SourceGraphic" in2="effect1_dropShadow" result="shape"/>
</filter>
<filter id="filter2_d" x="70.4088" y="39.9122" width="121.971" height="13.4672" filterUnits="userSpaceOnUse" color-interpolation-filters="sRGB">
<feFlood flood-opacity="0" result="BackgroundImageFix"/>
<feColorMatrix in="SourceAlpha" type="matrix" values="0 0 0 0 0 0 0 0 0 0 0 0 0 0 0 0 0 0 127 0"/>
<feOffset dx="2.39417" dy="2.39417"/>
<feGaussianBlur stdDeviation="2.99271"/>
<feColorMatrix type="matrix" values="0 0 0 0 0 0 0 0 0 0 0 0 0 0 0 0 0 0 0.25 0"/>
<feBlend mode="normal" in2="BackgroundImageFix" result="effect1_dropShadow"/>
<feBlend mode="normal" in="SourceGraphic" in2="effect1_dropShadow" result="shape"/>
</filter>
<filter id="filter3_d" x="0.0264282" y="0.591858" width="78.5044" height="78.8778" filterUnits="userSpaceOnUse" color-interpolation-filters="sRGB">
<feFlood flood-opacity="0" result="BackgroundImageFix"/>
<feColorMatrix in="SourceAlpha" type="matrix" values="0 0 0 0 0 0 0 0 0 0 0 0 0 0 0 0 0 0 127 0"/>
<feOffset dx="2.39417" dy="2.39417"/>
<feGaussianBlur stdDeviation="2.99271"/>
<feColorMatrix type="matrix" values="0 0 0 0 0 0 0 0 0 0 0 0 0 0 0 0 0 0 0.25 0"/>
<feBlend mode="normal" in2="BackgroundImageFix" result="effect1_dropShadow"/>
<feBlend mode="normal" in="SourceGraphic" in2="effect1_dropShadow" result="shape"/>
</filter>
</defs>
</svg>
